<svg width="114" height="135" viewBox="0 0 114 135" fill="none" xmlns="http://www.w3.org/2000/svg">
<path d="M104.335 134.49C104.781 134.936 105.505 134.936 105.951 134.49L113.224 127.217C113.67 126.77 113.67 126.047 113.224 125.6C112.778 125.154 112.054 125.154 111.608 125.6L105.143 132.065L98.6779 125.6C98.2315 125.154 97.5079 125.154 97.0616 125.6C96.6153 126.047 96.6153 126.77 97.0616 127.217L104.335 134.49ZM0 1.14282L-1.42961e-08 2.28568C9.00578 2.28568 20.0235 8.0883 31.611 17.6703C43.147 27.2098 55.0511 40.3296 65.8015 54.6C76.5494 68.8672 86.1166 84.248 92.9914 98.2876C99.8878 112.371 104 124.957 104 133.682L105.143 133.682L106.286 133.682C106.286 124.407 101.969 111.425 95.0442 97.2824C88.0976 83.0961 78.4506 67.5922 67.6271 53.2247C56.806 38.8603 44.7815 25.5954 33.0676 15.9088C21.405 6.26473 9.85136 -3.46449e-05 1.42961e-08 -3.48512e-05L0 1.14282Z" fill="#FF6265"/>
</svg>
