<svg width="145" height="88" viewBox="0 0 145 88" fill="none" xmlns="http://www.w3.org/2000/svg">
<path d="M135.601 87.3992C136.052 87.8848 136.784 87.9612 137.236 87.5697L144.593 81.1902C145.045 80.7987 145.045 80.0877 144.593 79.602C144.142 79.1164 143.41 79.0401 142.958 79.4315L136.418 85.1022L129.878 78.0676C129.427 77.582 128.695 77.5057 128.243 77.8972C127.792 78.2886 127.792 78.9997 128.243 79.4853L135.601 87.3992ZM0.125 1.12939L0.248397 2.25884C32.8389 2.25884 66.6744 14.169 92.3516 30.7468C105.187 39.0334 115.94 48.4589 123.472 58.0979C131.009 67.7436 135.262 77.5248 135.262 86.5698L136.418 86.6904L137.574 86.8109C137.574 77.0755 133.005 66.7713 125.255 56.853C117.499 46.9279 106.501 37.3107 93.4773 28.9023C67.4364 12.0897 33.1254 -5.53269e-05 0.00160252 -5.52361e-05L0.125 1.12939Z" fill="#FF6265"/>
</svg>
